<svg width="21" height="14" viewBox="0 0 21 14" fill="none" xmlns="http://www.w3.org/2000/svg">
<path fill-rule="evenodd" clip-rule="evenodd" d="M19.4991 0.829696C18.9178 0.266758 17.7001 -0.0397951 16.8762 0.169371C15.4562 0.52956 14.3279 1.9102 14.3866 3.21533C14.5011 5.75696 17.5502 7.05063 19.4183 5.35004C20.8334 4.06191 20.8674 2.15456 19.4991 0.829696ZM19.7801 7.8944C19.2364 7.35725 18.2612 7.04094 16.722 6.90244C15.7442 6.81451 14.7119 6.18449 14.1369 5.32535C13.7844 4.79833 13.6468 4.38188 13.5123 3.43438C13.4175 2.76605 13.2215 1.99394 13.0768 1.7184C12.078 -0.184158 9.34769 -0.38872 7.97292 1.33593C6.481 3.20742 7.63937 5.86554 10.0431 6.08727C12.9914 6.35922 14.1111 7.34177 14.4748 9.97651C14.6524 11.2633 14.7912 11.5992 15.3697 12.143C16.3562 13.0702 17.7641 13.2819 18.9174 12.6765C20.2096 11.9981 20.8664 10.7646 20.6235 9.47243C20.4504 8.55264 20.4553 8.56163 19.7801 7.8944ZM12.5698 7.73588C11.9672 7.26222 11.3696 7.07229 10.2112 6.98674C8.43299 6.85534 7.15789 5.96507 6.70754 4.54027C6.57608 4.12438 6.41698 3.3598 6.35408 2.8412C6.22732 1.79573 5.89902 1.25754 5.01 0.638099C4.16298 0.0478076 3.23687 -0.010191 2.18653 0.461245C-0.105091 1.48971 -0.441344 4.17248 1.54245 5.59879C2.01395 5.93769 2.47028 6.07477 3.38195 6.15104C5.93486 6.36461 7.12762 7.44154 7.44689 9.82084C7.53008 10.4408 7.72352 11.1874 7.87662 11.48C8.50571 12.6814 10.2115 13.3221 11.5364 12.8544C13.7565 12.071 14.3493 9.13496 12.5698 7.73588ZM5.34906 7.64696C3.30342 6.11573 0.315271 7.68019 0.429339 10.2227C0.486918 11.5071 1.41103 12.6138 2.70379 12.9463C4.18498 13.3275 5.76301 12.4562 6.32619 10.9463C6.78661 9.71205 6.41021 8.44133 5.34906 7.64696Z" fill="#070D59"/>
</svg>
