<svg width="476" height="479" viewBox="0 0 476 479" fill="none" xmlns="http://www.w3.org/2000/svg">
<circle cx="292.553" cy="450.863" r="27.2764" fill="#C4C4C4"/>
<circle cx="369.568" cy="450.863" r="27.2764" fill="#C4C4C4"/>
<circle cx="446.584" cy="450.863" r="27.2764" fill="#070D59"/>
<circle cx="446.584" cy="370.638" r="27.2764" fill="#C4C4C4"/>
<circle cx="446.584" cy="290.413" r="27.2764" fill="#C4C4C4"/>
<circle cx="369.568" cy="370.638" r="27.2764" fill="#C4C4C4"/>
<path d="M241.744 476.535L6.95288 239.604V476.535H241.744Z" fill="#F04037" stroke="#FFB21E"/>
<path d="M124.081 360.476H7.48755L124.081 476V360.476Z" fill="#1DBB93" stroke="#FFB21E"/>
<circle cx="179.704" cy="305.924" r="62.0405" fill="#042325"/>
<circle cx="163.659" cy="49.2045" r="49.2045" fill="#D6E2F1"/>
<circle cx="49.2045" cy="49.2045" r="49.2045" fill="#D6E2F1"/>
<circle cx="49.2045" cy="163.659" r="49.2045" fill="#D6E2F1"/>
<rect x="117.663" y="114.454" width="93.0607" height="93.0607" fill="#1DBB93"/>
<rect x="243.883" y="4.27869" width="232.117" height="235.326" fill="#C4C4C4"/>
<rect x="272.764" y="36.3684" width="152.962" height="19.2539" fill="#070D59"/>
<rect x="272.764" y="71.6674" width="109.106" height="19.2539" fill="#070D59"/>
<rect x="272.764" y="106.966" width="89.8517" height="19.2539" fill="#070D59"/>
<rect x="272.764" y="145.474" width="111.245" height="19.2539" fill="#070D59"/>
<rect x="272.764" y="180.773" width="135.847" height="19.2539" fill="#070D59"/>
</svg>
