<svg width="50" height="50" viewBox="0 0 50 50" fill="none" xmlns="http://www.w3.org/2000/svg">
<path fill-rule="evenodd" clip-rule="evenodd" d="M9.37005 8.89798C10.9172 10.155 11.4976 10.0591 14.4029 9.86522L41.7924 8.2206C42.3733 8.2206 41.8902 7.64109 41.6965 7.54479L37.1477 4.25635C36.2761 3.57966 35.1149 2.80472 32.8893 2.99857L6.36804 4.93295C5.4008 5.02885 5.20763 5.51247 5.5928 5.90008L9.37005 8.89798ZM11.0145 15.2811V44.0996C11.0145 45.6484 11.7884 46.2278 13.5304 46.132L43.6314 44.3902C45.3743 44.2944 45.5685 43.2291 45.5685 41.971V13.3459C45.5685 12.0897 45.0852 11.4124 44.0184 11.509L12.5625 13.3459C11.4016 13.4434 11.0144 14.0241 11.0144 15.2811H11.0145ZM40.7301 16.827C40.9231 17.6982 40.7301 18.5687 39.8572 18.6666L38.407 18.9556V40.2312C37.1477 40.908 35.9865 41.295 35.0189 41.295C33.4697 41.295 33.0817 40.8111 31.9213 39.3613L22.4345 24.4682V38.8777L25.4365 39.555C25.4365 39.555 25.4365 41.295 23.0145 41.295L16.3376 41.6823C16.1436 41.295 16.3376 40.3287 17.0149 40.1351L18.7572 39.6522V20.6001L16.3381 20.4063C16.144 19.535 16.6272 18.2788 17.9833 18.1813L25.146 17.6985L35.0189 32.7855V19.4391L32.5017 19.1502C32.3085 18.0851 33.0817 17.3118 34.0497 17.2159L40.7301 16.827ZM4.14126 2.32198L31.7276 0.290434C35.1153 -0.00010819 35.9869 0.194533 38.1161 1.74119L46.922 7.93045C48.375 8.99476 48.8593 9.28452 48.8593 10.4447V44.3902C48.8593 46.5177 48.0843 47.7759 45.3748 47.9683L13.3387 49.9029C11.3047 49.9999 10.3367 49.71 9.2715 48.3553L2.7867 39.9416C1.62483 38.3928 1.1416 37.2341 1.1416 35.8786V5.70554C1.1416 3.96581 1.91684 2.51457 4.14126 2.32198V2.32198Z" fill="#C4C4C4"/>
</svg>
