<svg width="235" height="134" viewBox="0 0 235 134" fill="none" xmlns="http://www.w3.org/2000/svg">
<path d="M153.138 64.2812C153.138 61.174 151.196 58.9407 147.603 58.9407H135.756V75.0595H139.64V69.5247H144.204L148.671 75.0595H153.041V74.6711L148.671 69.4276C151.487 68.845 153.138 66.8059 153.138 64.2812ZM147.117 66.2233H139.64V62.2421H147.117C148.477 62.2421 149.351 63.0189 149.351 64.2812C149.448 65.5436 148.574 66.2233 147.117 66.2233Z" fill="#C4C4C4"/>
<path d="M211.791 58.8435H208.198V64.9609H198.39V58.8435H194.506V74.9624H198.39V68.6508H208.198V74.9624H211.791V58.8435Z" fill="#C4C4C4"/>
<path d="M125.366 58.8435L121.093 72.3406H120.899L116.529 58.8435H109.635V74.9624H113.325V61.7566H113.519L117.792 74.9624H123.715L128.085 61.7566H128.279V74.9624H132.067V58.8435H125.366Z" fill="#C4C4C4"/>
<path d="M83.1238 65.4464C81.7643 65.3493 79.2395 65.058 77.7829 64.9609C76.4234 64.8638 75.6466 64.3783 75.6466 63.5044C75.6466 62.6304 76.5205 61.9507 79.8222 61.9507C82.7354 61.9507 85.4544 62.6304 87.8821 63.6986V60.1058C85.5515 58.9406 82.9296 58.4551 79.628 58.4551C75.0639 58.4551 71.8594 60.3971 71.8594 63.6015C71.8594 66.3203 73.7044 67.8739 77.4916 68.2623C78.8511 68.4565 81.1817 68.6507 82.7354 68.7478C84.4833 68.8449 84.9689 69.4275 84.9689 70.2044C84.9689 71.2725 83.7065 71.9522 80.6962 71.9522C77.5887 71.9522 74.3842 70.8841 72.0536 69.5246V73.2145C73.8986 74.4768 77.0061 75.4478 80.599 75.4478C85.5515 75.4478 88.7561 73.5058 88.7561 70.1072C88.7561 67.4855 87.1052 65.8348 83.1238 65.4464Z" fill="#C4C4C4"/>
<path d="M91.3779 58.8435V74.9624H106.332V71.6609H95.068V68.3595H106.138V65.058H95.068V62.145H106.332V58.8435H91.3779Z" fill="#C4C4C4"/>
<path d="M186.446 65.4464C185.087 65.3493 182.562 65.058 181.105 64.9609C179.746 64.8638 178.969 64.3783 178.969 63.5044C178.969 62.6304 179.843 61.9507 183.144 61.9507C186.058 61.9507 188.777 62.5333 191.204 63.6986V60.1058C188.874 58.9406 186.252 58.4551 182.95 58.4551C178.386 58.4551 175.182 60.3971 175.182 63.6015C175.182 66.3203 177.027 67.8739 180.814 68.2623C182.173 68.4565 184.504 68.6507 186.058 68.7478C187.806 68.8449 188.291 69.4275 188.291 70.2044C188.291 71.2725 187.029 71.9522 184.018 71.9522C180.911 71.9522 177.706 70.8841 175.376 69.5246V73.2145C177.221 74.4768 180.328 75.4478 183.921 75.4478C188.874 75.4478 192.078 73.5058 192.078 70.1072C192.078 67.4855 190.33 65.8348 186.446 65.4464Z" fill="#C4C4C4"/>
<path d="M168.675 58.8435V67.0971C168.675 70.2044 166.733 71.9522 163.917 71.9522C161.004 71.9522 159.159 70.3015 159.159 67.0971V58.9406H155.274V66.8058C155.274 72.6319 158.965 75.545 163.917 75.545C168.772 75.545 172.462 72.729 172.462 67V59.0377H168.675V58.8435Z" fill="#C4C4C4"/>
<path d="M58.6531 66.8057C58.6531 67.5825 58.2647 67.6796 57.2936 67.6796C56.2255 67.6796 56.0312 67.4854 55.9341 66.7086C55.7399 64.6695 54.3804 62.9216 52.0498 62.8245C51.3701 62.7274 51.1759 62.5332 51.1759 61.5622C51.1759 60.6883 51.273 60.2999 51.9527 60.2999C55.837 60.397 58.6531 63.6014 58.6531 66.8057ZM64.3825 66.8057C64.3825 60.7854 60.304 54.3767 50.7874 54.3767H32.0457C31.6573 54.3767 31.4631 54.5709 31.4631 54.9593C31.4631 55.1535 31.5602 55.3477 31.7544 55.4448C32.4341 56.0274 33.4052 56.61 34.7647 57.2898C36.0271 57.9695 37.0953 58.3579 38.0664 58.7463C38.4548 58.9405 38.649 59.1347 38.649 59.3289C38.649 59.6202 38.4548 59.9115 37.9693 59.9115H23.0147C22.5292 59.9115 22.335 60.2028 22.335 60.4941C22.335 60.7854 22.4321 60.9796 22.6263 61.1738C23.7916 62.4361 25.7337 63.9898 28.5498 65.7376C30.9775 67.2912 34.085 68.9419 36.5126 70.1071C36.9011 70.3013 37.0953 70.4956 37.0953 70.7869C37.0953 71.0782 36.9011 71.2724 36.4155 71.2724H29.5209C29.1325 71.2724 28.9383 71.4666 28.9383 71.7579C28.9383 71.9521 29.0354 72.1463 29.2296 72.3405C30.7833 73.797 33.3081 75.2535 36.6098 76.71C41.0767 78.555 45.5436 79.7202 50.5932 79.7202C60.2069 79.6231 64.3825 72.4376 64.3825 66.8057ZM51.8556 75.4477C47.1945 75.4477 43.2131 71.6608 43.2131 66.8057C43.2131 62.1448 47.0974 58.3579 51.8556 58.3579C56.711 58.3579 60.4982 62.1448 60.4982 66.8057C60.4982 71.5637 56.711 75.4477 51.8556 75.4477Z" fill="#C4C4C4"/>
</svg>
