<svg width="30" height="30" viewBox="0 0 30 30" fill="none" xmlns="http://www.w3.org/2000/svg">
<circle cx="15" cy="15" r="13" stroke="black" stroke-width="3"/>
<path fill-rule="evenodd" clip-rule="evenodd" d="M17.9568 9.57009C17.9991 7.84443 16.7319 6.43665 15.1269 6.39124C15.0846 6.39124 15.0424 6.39124 15.0002 6.39124C13.3951 6.34583 12.0857 7.70819 12.0435 9.43385C12.0435 9.47926 12.0435 9.52468 12.0435 9.57009C12.0435 9.93339 12.3814 11.7045 12.3814 11.7045C12.6348 13.2485 13.564 14.5654 15.0002 14.5654C16.4363 14.5654 17.3655 13.2939 17.6189 11.7045C17.6189 11.7045 17.9568 9.93339 17.9568 9.57009Z" stroke="black" stroke-width="3"/>
<path d="M5.39136 23.7608V23.3651C5.39136 21.613 6.69136 20.313 8.44353 19.8608L15.0001 18.6738L21.6131 19.9173C23.3087 20.426 24.6087 21.613 24.6087 23.4217V23.8173" stroke="black" stroke-width="3"/>
</svg>
