<svg width="161" height="32" viewBox="0 0 161 32" fill="none" xmlns="http://www.w3.org/2000/svg">
<g clip-path="url(#clip0_776:120)">
<path d="M16.7338 25.263C22.7439 25.263 27.3893 20.7388 27.3893 15.1579C27.3893 9.92928 23.0251 6.73699 20.1345 6.73699C16.1094 6.73699 12.8828 9.55141 12.4231 13.7296C12.338 14.5033 11.7227 15.1522 10.9419 15.1467C9.64404 15.1374 7.75679 15.1263 6.56224 15.1305C6.04791 15.1322 5.62287 14.7164 5.64821 14.2042C5.82836 10.5805 7.04449 7.1923 9.36332 4.58963C11.9399 1.69758 15.6922 0 20.1345 0C27.5982 0 34.6441 6.75733 34.6441 15.1579C34.6441 24.4595 26.9094 32 16.8925 32C9.74897 32 2.55413 27.3483 0.0420825 20.845C0.0330467 20.8209 0.0308544 20.7948 0.0357475 20.7696C0.0694024 20.5772 0.135722 20.4014 0.201053 20.2283C0.296079 19.9767 0.389125 19.7306 0.375663 19.4471L0.332109 18.5412C0.322103 18.322 0.37784 18.1047 0.4922 17.9172C0.606559 17.7297 0.774348 17.5805 0.974127 17.4886L1.3372 17.3201C1.54062 17.2263 1.71851 17.0852 1.85596 16.9086C1.9934 16.732 2.08639 16.5251 2.12711 16.3052C2.24886 15.6409 2.83406 15.1579 3.51725 15.1579C4.58431 15.1579 5.512 15.8649 5.86043 16.8699C7.53783 21.7075 10.2045 25.263 16.7338 25.263Z" fill="#7E7C7C"/>
<path d="M149.597 11.1772C148.266 11.1772 147.856 10.3863 147.856 9.49328C147.856 8.54928 148.189 7.80933 149.597 7.80933C151.004 7.80933 151.337 8.54928 151.337 9.49328C151.337 10.3861 150.979 11.1772 149.597 11.1772ZM125.301 22.1295V15.5727L123.429 15.5634V14.8001C123.429 13.9687 124.108 13.2959 124.942 13.3001L125.301 13.3021V10.5208L128.296 9.67896V13.3017H131.009V14.0724C131.009 14.2695 130.97 14.4646 130.894 14.6467C130.818 14.8287 130.708 14.9941 130.568 15.1334C130.428 15.2727 130.262 15.3831 130.08 15.4585C129.897 15.5338 129.702 15.5726 129.504 15.5725H128.296V21.7467C128.296 22.6972 128.836 23.0311 129.532 23.1458C130.352 23.2809 131.035 23.8727 131.035 24.701V25.8289C128.199 25.8289 125.301 25.7042 125.301 22.1295H125.301ZM66.2236 13.0192C63.2289 12.9426 59.5431 14.8306 59.5431 19.5508C59.5431 24.1941 63.2289 26.0312 66.2236 25.9547C69.2951 26.0312 72.9552 24.1941 72.9552 19.5508C72.9552 14.8306 69.2951 12.9426 66.2236 13.0192V13.0192ZM66.2458 23.6371C64.0701 23.6371 62.5265 22.057 62.5265 19.4548C62.5265 16.9797 64.0711 15.3495 66.2468 15.3495C68.4223 15.3495 69.9496 16.9765 69.9496 19.4512C69.9496 22.0537 68.4213 23.6371 66.2456 23.6371H66.2458ZM80.8216 13.0473C83.4322 13.0473 86.1454 13.7615 86.1454 18.8643V25.7021H84.4763C83.6452 25.7021 82.9715 25.0305 82.9715 24.202V18.6093C82.9715 16.1856 82.0757 15.2671 80.5143 15.2671C79.644 15.2671 78.518 15.9304 77.9803 16.4661V24.2022C77.9802 24.3993 77.9412 24.5944 77.8656 24.7764C77.7899 24.9585 77.6791 25.1239 77.5394 25.2632C77.3996 25.4024 77.2338 25.5129 77.0513 25.5883C76.8688 25.6636 76.6732 25.7023 76.4757 25.7023H74.9601V13.3534H76.6487C76.9398 13.3534 77.2223 13.4517 77.4502 13.6324C77.678 13.8131 77.8378 14.0655 77.9035 14.3484C78.6716 13.5065 79.6698 13.0473 80.8216 13.0473ZM89.5681 13.3315C89.8784 13.3314 90.1811 13.427 90.4348 13.6052C90.6885 13.7834 90.8808 14.0356 90.9854 14.3271L93.7259 21.9806L96.4662 14.3273C96.5706 14.0358 96.7629 13.7836 97.0166 13.6054C97.2703 13.4272 97.573 13.3316 97.8832 13.3317H100.048L95.5844 24.7259C95.474 25.0071 95.2812 25.2487 95.0311 25.4189C94.781 25.5892 94.4853 25.6802 94.1826 25.6801H92.2668L87.4037 13.3315H89.5681ZM111.881 25.0802C110.934 25.4629 109.013 25.9727 107.017 25.9727C103.51 25.9727 100.824 23.9573 100.824 19.4158C100.824 15.3337 103.428 13.151 106.602 13.151C110.519 13.151 112.19 15.772 112.016 19.34C111.98 20.0772 111.336 20.6149 110.596 20.6149H103.843C103.996 22.605 105.455 23.6509 107.375 23.6509C108.129 23.6509 108.921 23.6128 109.871 23.436C110.878 23.2483 111.881 23.9628 111.881 24.984V25.0802ZM109.305 18.5228C109.511 16.57 108.188 15.4984 106.602 15.4984C105.015 15.4984 103.945 16.6858 103.843 18.5226H109.305V18.5228ZM116.004 13.3572C116.282 13.3571 116.552 13.4501 116.771 13.6213C116.989 13.7926 117.144 14.032 117.209 14.3014C118.233 13.5357 119.513 13.051 120.408 13.051C120.486 13.051 120.972 13.051 121.74 13.1531V14.4772C121.74 15.1889 121.123 15.7299 120.408 15.7299C119.59 15.7299 118.387 16.0361 117.44 16.572V25.7058H114.394V13.357H116.004V13.3572ZM151.133 24.169V13.3204H149.617C148.786 13.3204 148.112 13.992 148.112 14.8205V25.6689H149.628C150.459 25.6689 151.133 24.9973 151.133 24.169V24.169ZM155.251 22.1556V15.5986H153.229V14.8278C153.229 13.9994 153.903 13.3277 154.734 13.3277H155.251V10.5469L158.246 9.70483V13.3277H160.959V14.0985C160.959 14.927 160.285 15.5986 159.454 15.5986H158.246V21.773C158.246 22.7233 158.786 23.0571 159.483 23.1719C160.302 23.3072 160.985 23.8988 160.985 24.7271V25.855C158.149 25.855 155.251 25.7305 155.251 22.1556V22.1556ZM44.5771 16.9998C44.5962 11.226 48.9642 7.99975 53.1558 7.99975C55.4839 7.99975 57.6188 8.49989 59.3744 9.74987L58.6641 10.7211C58.189 11.371 57.2882 11.6292 56.5379 11.3335C55.479 10.9161 54.4816 10.828 53.7386 10.828C50.309 10.828 47.7223 13.0245 47.7039 16.9996C47.7223 20.9746 50.309 23.2029 53.7386 23.2029C54.4816 23.2029 55.479 23.1148 56.5379 22.6974C57.2882 22.4017 58.189 22.6287 58.6641 23.2784L59.3744 24.2498C57.6188 25.4998 55.4841 25.9999 53.1558 25.9999C48.9642 25.9999 44.5962 22.7735 44.5771 16.9998ZM134.748 8.09002C135.579 8.09002 136.253 8.76162 136.253 9.59007V16.4671L142.413 8.75194C142.552 8.56267 142.735 8.40884 142.945 8.30285C143.156 8.19687 143.388 8.14169 143.624 8.14177H146.36L139.396 16.9072L146.36 25.6691H143.624C143.388 25.6691 143.156 25.6139 142.945 25.508C142.735 25.402 142.552 25.2482 142.413 25.0589L136.253 17.3459V24.169C136.253 24.9975 135.579 25.6691 134.748 25.6691H133.155V8.09002H134.748Z" fill="#C4C4C4"/>
</g>
<defs>
<clipPath id="clip0_776:120">
<rect width="161" height="32" fill="white"/>
</clipPath>
</defs>
</svg>
