<svg width="103" height="26" viewBox="0 0 103 26" fill="none" xmlns="http://www.w3.org/2000/svg">
<path fill-rule="evenodd" clip-rule="evenodd" d="M32.9521 20.472L34.2376 17.4922C35.626 18.528 37.4759 19.0664 39.3011 19.0664C40.6483 19.0664 41.5011 18.5485 41.5011 17.7635C41.4805 15.5687 33.4301 17.2867 33.3683 11.7834C33.3477 8.98859 35.8361 6.83494 39.3629 6.83494C41.4599 6.83494 43.5529 7.3528 45.0485 8.53238L43.8454 11.5738C42.4776 10.7025 40.776 10.0819 39.1569 10.0819C38.0568 10.0819 37.3317 10.5997 37.3317 11.2614C37.3523 13.4151 45.4646 12.2355 45.547 17.4922C45.547 20.3487 43.1203 22.3585 39.6348 22.3585C37.0804 22.3544 34.7361 21.7543 32.9521 20.472V20.472ZM82.3139 16.4154C81.6711 17.5333 80.4681 18.2978 79.0755 18.2978C77.0197 18.2978 75.3634 16.6415 75.3634 14.5947C75.3634 12.5479 77.0238 10.8915 79.0755 10.8915C80.464 10.8915 81.6711 11.656 82.3139 12.7739L85.8612 10.8093C84.5345 8.45018 81.9801 6.83494 79.0755 6.83494C74.7784 6.83494 71.2929 10.312 71.2929 14.5988C71.2929 18.8855 74.7784 22.3626 79.0755 22.3626C82.0007 22.3626 84.5345 20.7679 85.8612 18.3882L82.3139 16.4154ZM47.3309 0.394531H51.7723V22.0667H47.3309V0.394531ZM87.6039 0.394531V22.0667H92.0453V15.5646L97.3148 22.0667H103L96.2971 14.3439L102.502 7.13908H97.0634L92.0412 13.1192V0.394531H87.6039Z" fill="#C4C4C4"/>
<path d="M64.968 16.4565C64.3253 17.5128 62.9986 18.2978 61.5031 18.2978C59.4472 18.2978 57.7909 16.6414 57.7909 14.5946C57.7909 12.5479 59.4513 10.8915 61.5031 10.8915C62.9986 10.8915 64.3253 11.7176 64.968 12.7945V16.4565ZM64.968 7.14317V8.90226C64.2429 7.68159 62.4383 6.83081 60.5472 6.83081C56.6456 6.83081 53.5762 10.2668 53.5762 14.5741C53.5762 18.8814 56.6456 22.3585 60.5472 22.3585C62.4342 22.3585 64.2388 21.5118 64.968 20.287V22.0461H69.4094V7.14317H64.968Z" fill="#C4C4C4"/>
<path fill-rule="evenodd" clip-rule="evenodd" d="M5.50011 16.436C5.50011 17.9485 4.27647 19.1692 2.76031 19.1692C1.24415 19.1692 0.0205078 17.9444 0.0205078 16.436C0.0205078 14.9277 1.24415 13.7029 2.76031 13.7029H5.50011V16.436ZM6.86795 16.436C6.86795 14.9236 8.09159 13.7029 9.60775 13.7029C11.1239 13.7029 12.3475 14.9236 12.3475 16.436V23.2669C12.3475 24.7794 11.1239 26.0001 9.60775 26.0001C8.09159 26.0001 6.86795 24.7794 6.86795 23.2669V16.436Z" fill="#66696A"/>
<path fill-rule="evenodd" clip-rule="evenodd" d="M9.60784 5.46633C8.09168 5.46633 6.86804 4.24565 6.86804 2.73316C6.86804 1.22068 8.09168 0 9.60784 0C11.124 0 12.3476 1.22068 12.3476 2.73316V5.46633H9.60784ZM9.60784 6.85141C11.124 6.85141 12.3476 8.07208 12.3476 9.58457C12.3476 11.0971 11.124 12.3177 9.60784 12.3177H2.7398C1.22364 12.3177 0 11.0929 0 9.58457C0 8.07619 1.22364 6.85141 2.7398 6.85141H9.60784Z" fill="#908F8E"/>
<path fill-rule="evenodd" clip-rule="evenodd" d="M20.5838 9.58457C20.5838 8.07208 21.8074 6.85141 23.3236 6.85141C24.8397 6.85141 26.0634 8.07208 26.0634 9.58457C26.0634 11.0971 24.8397 12.3177 23.3236 12.3177H20.5838V9.58457ZM19.2159 9.58457C19.2159 11.0971 17.9923 12.3177 16.4761 12.3177C14.96 12.3177 13.7363 11.0971 13.7363 9.58457V2.73316C13.7363 1.22068 14.96 0 16.4761 0C17.9923 0 19.2159 1.22068 19.2159 2.73316V9.58457Z" fill="#C4C4C4"/>
<path fill-rule="evenodd" clip-rule="evenodd" d="M16.4761 20.5337C17.9923 20.5337 19.2159 21.7544 19.2159 23.2669C19.2159 24.7794 17.9923 26.0001 16.4761 26.0001C14.96 26.0001 13.7363 24.7794 13.7363 23.2669V20.5337H16.4761ZM16.4761 19.1692C14.96 19.1692 13.7363 17.9485 13.7363 16.436C13.7363 14.9236 14.96 13.7029 16.4761 13.7029H23.3442C24.8603 13.7029 26.084 14.9236 26.084 16.436C26.084 17.9485 24.8603 19.1692 23.3442 19.1692H16.4761Z" fill="#575554"/>
</svg>
