<svg width="129" height="34" viewBox="0 0 129 34" fill="none" xmlns="http://www.w3.org/2000/svg">
<g clip-path="url(#clip0_784:46)">
<path d="M0.0410156 8.53145V4.78394H16.7503V8.53145H10.6377V25.0526H6.15359V8.53145H0.0410156Z" fill="#C4C4C4"/>
<path d="M21.0167 29.4243C20.2356 29.9353 19.1502 30.1905 17.7605 30.1905C17.3414 30.1905 16.9272 30.1766 16.5181 30.1479C16.1083 30.1193 15.6942 30.0864 15.2757 30.0488V26.7275C15.6564 26.7651 16.0467 26.8031 16.4468 26.8406C16.8466 26.8782 17.2463 26.8879 17.6464 26.8693C18.179 26.8127 18.5747 26.6041 18.8319 26.2447C19.0845 25.8981 19.2194 25.4806 19.2172 25.0526C19.2172 24.7312 19.1599 24.4277 19.0458 24.1439L13.876 10.3764H18.1891L21.5309 20.425H21.5878L24.8155 10.3764H29.0141L22.8446 26.8693C22.4063 28.0611 21.797 28.9128 21.0167 29.4243ZM34.3106 10.3764V12.25H34.3679C34.8627 11.4551 35.4911 10.8778 36.2527 10.5185C37.0144 10.1592 37.8523 9.97914 38.7667 9.97914C39.9277 9.97914 40.9274 10.1967 41.7657 10.6319C42.6033 11.0675 43.2983 11.6448 43.8508 12.3634C44.4028 13.0828 44.8119 13.9203 45.0788 14.8759C45.3452 15.8318 45.4788 16.83 45.4788 17.8711C45.4788 18.8553 45.3452 19.8012 45.0788 20.7092C44.8119 21.6179 44.4075 22.4224 43.8648 23.1221C43.3221 23.8225 42.6462 24.3812 41.837 24.7971C41.0275 25.2129 40.0804 25.4219 38.995 25.4219C38.081 25.4219 37.2384 25.2373 36.467 24.8683C35.6956 24.4993 35.0625 23.9553 34.5678 23.2359H34.5105V30.4196H30.4545V10.3764H34.3106ZM39.5823 22.0015C40.0208 21.7452 40.3925 21.3902 40.6677 20.9651C40.9436 20.5392 41.1391 20.0428 41.2533 19.4748C41.3678 18.9068 41.425 18.3299 41.425 17.7429C41.4255 17.1608 41.3632 16.5804 41.2392 16.0115C41.115 15.4438 40.9108 14.9374 40.6249 14.4925C40.3456 14.0545 39.9695 13.6856 39.5251 13.4139C39.0778 13.1401 38.5301 13.0023 37.883 13.0023C37.216 13.0023 36.6593 13.1401 36.212 13.4139C35.7724 13.6808 35.401 14.0452 35.1266 14.4786C34.8504 14.9141 34.6556 15.4152 34.5411 15.9828C34.4257 16.5625 34.3683 17.1521 34.3697 17.7429C34.3697 18.3299 34.4313 18.9068 34.5555 19.4748C34.679 20.0428 34.8789 20.5392 35.1551 20.9651C35.4309 21.391 35.7979 21.7363 36.2549 22.0015C36.7119 22.2664 37.2639 22.3984 37.9114 22.3984C38.578 22.3984 39.1347 22.2664 39.5823 22.0015ZM51.9746 21.5323C52.5835 22.1196 53.46 22.4124 54.6023 22.4124C55.4212 22.4124 56.1256 22.2098 56.7162 21.8022C57.3061 21.3953 57.668 20.9647 57.8012 20.5105H61.3717C60.8002 22.2707 59.9241 23.5297 58.744 24.286C57.5632 25.0429 56.1353 25.4219 54.4597 25.4219C53.298 25.4219 52.2504 25.2373 51.3181 24.8683C50.3847 24.4993 49.5942 23.9743 48.9475 23.2928C48.3 22.6121 47.8001 21.7975 47.4476 20.852C47.095 19.9053 46.9193 18.8646 46.9193 17.729C46.9193 16.6317 47.1001 15.6099 47.462 14.6636C47.8235 13.717 48.3378 12.8988 49.0043 12.2077C49.6706 11.5174 50.4653 10.973 51.3894 10.5757C52.3123 10.1778 53.3358 9.97949 54.4597 9.97949C55.7165 9.97949 56.8113 10.2207 57.7439 10.7032C58.677 11.186 59.4437 11.8345 60.0433 12.6476C60.6432 13.4615 61.0761 14.3891 61.3429 15.4295C61.6094 16.471 61.7045 17.559 61.6285 18.6942H50.9749C51.0321 19.9995 51.3653 20.9457 51.9746 21.5323ZM56.5592 13.8115C56.0734 13.2814 55.3355 13.0162 54.3459 13.0162C53.6981 13.0162 53.1604 13.1254 52.7319 13.3426C52.3037 13.5609 51.9609 13.8304 51.7041 14.1518C51.447 14.4736 51.2659 14.815 51.1618 15.174C51.0566 15.5333 50.9947 15.8551 50.9756 16.1389H57.5736C57.3824 15.1167 57.0442 14.3415 56.5592 13.8115ZM61.6789 13.0731V10.3764H64.1064V9.2408C64.1064 7.9352 64.5155 6.86617 65.3348 6.03299C66.1533 5.20053 67.3914 4.78394 69.0479 4.78394C69.4095 4.78394 69.7717 4.79861 70.1333 4.82653C70.4949 4.85516 70.8474 4.87914 71.1906 4.89775V7.90657C70.6977 7.84909 70.2018 7.82064 69.7055 7.82139C69.1531 7.82139 68.7577 7.94951 68.52 8.20505C68.2816 8.46023 68.1631 8.89114 68.1631 9.49669V10.3764H70.9619V13.0731H68.1631V25.0526H64.1072V13.0731H61.6789ZM71.4981 14.5351C71.8597 13.5796 72.3739 12.7657 73.0405 12.0936C73.7067 11.4225 74.5062 10.9018 75.4396 10.5328C76.3723 10.1635 77.4195 9.97914 78.5816 9.97914C79.7422 9.97914 80.7952 10.1635 81.7383 10.5328C82.6807 10.9018 83.4863 11.4225 84.1514 12.0936C84.8191 12.7657 85.333 13.5796 85.6945 14.5351C86.0554 15.4907 86.2369 16.5555 86.2369 17.7286C86.2369 18.9018 86.0554 19.9615 85.6945 20.9082C85.333 21.8548 84.8187 22.6633 84.1514 23.335C83.486 24.0068 82.6807 24.5225 81.7383 24.8819C80.7955 25.2412 79.7422 25.4216 78.5816 25.4216C77.4195 25.4216 76.3723 25.2412 75.4396 24.8819C74.5062 24.5225 73.7067 24.0068 73.0405 23.335C72.3736 22.6633 71.8597 21.8544 71.4981 20.9082C71.1359 19.9615 70.9551 18.9022 70.9551 17.7286C70.9551 16.5551 71.1359 15.4907 71.4981 14.5351ZM75.1825 19.4458C75.2966 20.0045 75.4914 20.5062 75.7684 20.9504C76.0397 21.3911 76.4178 21.7573 76.8681 22.0155C77.3248 22.2803 77.8959 22.4124 78.5816 22.4124C79.2672 22.4124 79.8427 22.2803 80.309 22.0155C80.7754 21.7507 81.1474 21.3956 81.4236 20.9504C81.6998 20.5062 81.8953 20.0041 82.0102 19.4458C82.1236 18.8879 82.1816 18.3156 82.1816 17.7286C82.1816 17.1424 82.124 16.5644 82.0102 15.9968C81.8953 15.4292 81.6998 14.9281 81.4236 14.4925C81.1474 14.0577 80.7754 13.7027 80.309 13.4278C79.8427 13.154 79.2672 13.0162 78.5816 13.0162C77.8959 13.0162 77.3248 13.154 76.8681 13.4278C76.4222 13.6915 76.0453 14.0564 75.7684 14.4925C75.4914 14.9281 75.2966 15.4292 75.1825 15.9968C75.068 16.567 75.0106 17.1471 75.011 17.7286C75.011 18.3156 75.0683 18.8879 75.1825 19.4458ZM91.5568 10.3764V13.1014H91.6137C91.8035 12.6472 92.061 12.2264 92.3847 11.8384C92.7085 11.4504 93.0798 11.119 93.4989 10.8452C93.915 10.5721 94.3668 10.3572 94.8418 10.2064C95.3218 10.0542 95.8227 9.97757 96.3265 9.97914C96.5937 9.97914 96.8887 10.0267 97.2128 10.1209V13.868C96.9858 13.825 96.757 13.792 96.5271 13.7689C96.2708 13.741 96.0132 13.7267 95.7554 13.7259C95.0128 13.7259 94.3844 13.8494 93.8706 14.0953C93.3563 14.3415 92.9422 14.6772 92.6285 15.1028C92.3141 15.5287 92.0898 16.0254 91.9569 16.593C91.824 17.1607 91.757 17.7759 91.757 18.4387V25.0526H87.7014V10.3764H91.5568ZM102.481 10.3764V12.3634H102.537C103.07 11.6072 103.714 11.0199 104.465 10.6033C105.217 10.1878 106.079 9.97914 107.05 9.97914C107.983 9.97914 108.835 10.1592 109.607 10.5185C110.378 10.8778 110.963 11.512 111.364 12.4203C111.801 11.7768 112.396 11.2092 113.149 10.7171C113.901 10.225 114.791 9.97914 115.819 9.97914C116.6 9.97914 117.323 10.074 117.99 10.2629C118.657 10.4523 119.228 10.7554 119.704 11.1713C120.179 11.5879 120.55 12.1319 120.818 12.8033C121.084 13.4754 121.217 14.2846 121.217 15.2309V25.0526H117.161V16.7351C117.161 16.243 117.142 15.7795 117.104 15.344C117.066 14.9091 116.961 14.5308 116.79 14.2087C116.618 13.8873 116.366 13.6318 116.033 13.4421C115.7 13.2532 115.248 13.1583 114.676 13.1583C114.105 13.1583 113.644 13.2675 113.29 13.4847C112.946 13.6941 112.661 13.9872 112.463 14.3365C112.263 14.6869 112.129 15.0841 112.063 15.5287C111.996 15.975 111.963 16.4256 111.963 16.8768V25.0526H107.907V16.8203C107.907 16.3847 107.897 15.9545 107.878 15.5287C107.858 15.1028 107.779 14.7101 107.635 14.3508C107.493 13.9915 107.254 13.7027 106.922 13.4847C106.588 13.2675 106.098 13.1583 105.45 13.1583C105.259 13.1583 105.007 13.2009 104.693 13.2861C104.378 13.3713 104.074 13.532 103.779 13.7689C103.485 14.0055 103.232 14.3462 103.022 14.7903C102.813 15.2355 102.708 15.8171 102.708 16.5365V25.0526H98.6518V10.3764H102.481Z" fill="#C4C4C4"/>
<path d="M125.359 0H128.96V34H125.359V0Z" fill="#C4C4C4"/>
</g>
<defs>
<clipPath id="clip0_784:46">
<rect width="129" height="34" fill="white"/>
</clipPath>
</defs>
</svg>
