<svg width="15" height="18" viewBox="0 0 15 18" fill="none" xmlns="http://www.w3.org/2000/svg">
<path fill-rule="evenodd" clip-rule="evenodd" d="M10.9219 0.637451C11.0299 1.60945 10.6429 2.59045 10.0579 3.29245C9.47292 3.99445 8.51892 4.54345 7.59192 4.47145C7.46592 3.51745 7.93392 2.51845 8.47392 1.89745C9.07692 1.19545 10.0849 0.673451 10.9219 0.637451ZM6.69053 5.12123C7.08366 5.27727 7.43433 5.41645 7.71792 5.41645C7.96707 5.41645 8.29204 5.28873 8.67648 5.13764C9.29194 4.89576 10.0598 4.59398 10.9129 4.66045C11.4439 4.69645 12.9649 4.85845 13.9549 6.30745C13.8739 6.35245 12.1369 7.36045 12.1549 9.46645C12.1819 11.9865 14.3599 12.8235 14.3869 12.8325C14.3689 12.8955 14.0359 14.0295 13.2349 15.1995C12.5419 16.2165 11.8219 17.2245 10.6879 17.2425C10.1402 17.2557 9.77464 17.0977 9.39432 16.9334C8.99966 16.7628 8.58916 16.5855 7.94292 16.5855C7.25623 16.5855 6.82418 16.7699 6.40803 16.9476C6.04968 17.1006 5.70313 17.2486 5.21592 17.2695C4.11792 17.3055 3.28992 16.1715 2.58792 15.1635C1.15692 13.0935 0.0679241 9.33145 1.53492 6.78445C2.26392 5.51545 3.55992 4.71445 4.97292 4.69645C5.58163 4.68111 6.17289 4.91578 6.69053 5.12123Z" fill="white"/>
</svg>
