<svg width="26" height="28" viewBox="0 0 26 28" fill="none" xmlns="http://www.w3.org/2000/svg">
<path fill-rule="evenodd" clip-rule="evenodd" d="M15.5624 26.9999H5.48073C3.00609 26.9999 1 24.9755 1 22.4782V11.1738H20.0431V22.4782C20.0431 24.9755 18.037 26.9999 15.5624 26.9999Z" stroke="#B3B1B7" stroke-width="2"/>
<path d="M13.322 11.1739V6.65217C13.322 3.53056 15.8296 1 18.9229 1V1C22.0162 1 24.5238 3.53056 24.5238 6.65217V11.1739" stroke="#B3B1B7" stroke-width="2"/>
<path d="M10.5215 21.9132C10.1774 21.9167 9.87505 21.6838 9.78777 21.3479L8.88603 18.3071C8.78164 17.8084 8.90508 17.2887 9.22219 16.892C9.53929 16.4953 10.0164 16.2636 10.5215 16.261C11.023 16.2646 11.4966 16.494 11.813 16.8866C12.1295 17.2792 12.2556 17.7939 12.157 18.2901L11.2552 21.3479C11.1679 21.6838 10.8655 21.9167 10.5215 21.9132Z" fill="#B3B1B7"/>
</svg>
