<svg width="79" height="39" viewBox="0 0 79 39" fill="none" xmlns="http://www.w3.org/2000/svg">
<path fill-rule="evenodd" clip-rule="evenodd" d="M21.5753 21.008C25.3096 23.3763 29.9272 24.8026 34.6967 24.8026C37.9141 24.8026 41.4509 24.0748 44.7051 22.5705C45.1959 22.3434 45.6074 22.9231 45.1269 23.3094C42.2242 25.6441 38.0157 26.8859 34.3919 26.8859C29.3128 26.8859 24.7394 24.8399 21.278 21.4337C21.0063 21.1662 21.2487 20.8007 21.5753 21.008ZM47.7821 21.2948C48.1089 21.6706 47.6968 24.2725 46.1018 25.5141C45.8564 25.7052 45.6233 25.6034 45.732 25.351L45.92 24.9093C46.307 23.9836 46.8365 22.581 46.5137 22.1964C46.1333 21.7432 43.9999 21.9816 43.0418 22.0882C42.7515 22.1207 42.7064 21.8849 42.9681 21.7137C44.6698 20.6013 47.4581 20.9226 47.7821 21.2948ZM30.8997 12.0385C31.5346 12.0385 32.2258 12.3005 32.6492 12.8902C33.1049 13.5125 33.0387 14.4011 33.031 15.2046L33.0291 20.2425C33.0291 20.398 32.8985 20.5227 32.7376 20.5227H31.2278C31.0761 20.5129 30.9564 20.3923 30.9564 20.2432L30.9561 16.1168C30.9561 15.7893 30.9844 14.9703 30.9137 14.6591C30.8009 14.1349 30.4623 13.9875 30.0249 13.9875C29.6582 13.9875 29.277 14.2332 29.1219 14.6264C29.0055 14.9212 28.9844 15.3634 28.9812 15.7526L28.9809 20.2425C28.9809 20.398 28.8503 20.5227 28.6893 20.5227H27.1797C27.0279 20.5129 26.9083 20.3923 26.9083 20.2432L26.9067 16.1168C26.9067 15.2488 27.0478 13.9712 25.9756 13.9712C24.9772 13.9712 24.932 15.0223 24.9312 15.8918L24.9309 20.2425C24.9311 20.398 24.8004 20.5227 24.6393 20.5227H23.1279C22.9841 20.5133 22.869 20.4047 22.8576 20.2664L22.8586 12.4828C22.8586 12.3271 22.9891 12.2026 23.1502 12.2026L24.5578 12.2022C24.7051 12.2098 24.8234 12.3216 24.8327 12.4635V13.4799H24.861C25.2279 12.4971 25.9192 12.0385 26.8503 12.0385C27.7957 12.0385 28.3882 12.4971 28.8116 13.4799C29.1783 12.4971 30.0107 12.0385 30.8997 12.0385ZM53.3731 11.6143C55.5937 11.6143 56.7946 13.6051 56.7946 16.1359C56.7946 18.5822 55.4681 20.5227 53.3731 20.5227C51.1943 20.5227 50.0072 18.5317 50.0072 16.0516C50.0072 13.5544 51.2082 11.6143 53.3731 11.6143ZM61.7934 12.0385C62.4873 12.0385 63.1672 12.2841 63.6011 12.9557C63.9837 13.5435 64.005 14.5112 64.0061 15.2515L64.0062 20.2774C63.9886 20.4156 63.8623 20.5227 63.7092 20.5227H62.1561C62.0127 20.5136 61.897 20.4106 61.8802 20.2774L61.8815 15.8372C61.8889 15.0059 61.8946 13.9548 60.9112 13.9548C60.5351 13.9548 60.188 14.2005 60.0147 14.5772C59.8176 15.009 59.7756 15.4408 59.7695 15.9095L59.7687 20.2425C59.7659 20.398 59.632 20.5227 59.467 20.5227H57.9235C57.7683 20.5129 57.6455 20.3923 57.6455 20.2432L57.643 12.4567C57.656 12.3144 57.7845 12.2026 57.9405 12.2026L59.3777 12.2022C59.5128 12.2089 59.6244 12.2994 59.6529 12.4202V13.6108H59.6821C60.116 12.5461 60.7231 12.0385 61.7934 12.0385ZM48.2696 12.0385C48.4388 12.0385 48.5748 12.1595 48.5752 12.3312L48.5748 13.3252C48.5735 13.492 48.4304 13.7096 48.176 14.0549L45.4325 17.8967C46.4509 17.8734 47.5282 18.0227 48.4536 18.5329C48.6622 18.6478 48.7181 18.8185 48.7345 18.9854V20.222C48.7345 20.3925 48.5445 20.5896 48.3447 20.4871C46.7143 19.6496 44.551 19.558 42.7484 20.4971C42.5642 20.5934 42.3713 20.3991 42.3713 20.2286V19.053C42.3713 18.8649 42.375 18.5431 42.5684 18.2563L45.7471 13.784L42.9794 13.7834C42.8104 13.7834 42.6746 13.6651 42.6735 13.4916V12.3326C42.6742 12.1562 42.8098 12.0387 42.973 12.039L48.2696 12.0385ZM38.2411 11.6426C38.9894 11.6426 39.9681 11.8426 40.5581 12.4094C41.3067 13.1095 41.2346 14.0428 41.2346 15.0596V17.4587C41.2346 18.1803 41.5342 18.497 41.8154 18.8858C41.9136 19.0259 41.9358 19.1926 41.8103 19.2949L41.4749 19.5804C41.1836 19.8308 40.8455 20.1262 40.6304 20.3177L40.6269 20.3143C40.525 20.4057 40.3782 20.4118 40.2634 20.3502C39.7524 19.925 39.6608 19.7285 39.3815 19.3239C38.5369 20.1851 37.9386 20.4433 36.8449 20.4433C35.5497 20.4433 34.542 19.6432 34.542 18.0432C34.542 16.793 35.2184 15.9431 36.1828 15.5263C37.0175 15.1595 38.1835 15.0929 39.0758 14.9928L39.0769 14.5082C39.0749 14.2168 39.0506 13.9136 38.8887 13.6761C38.7014 13.3928 38.3418 13.2761 38.025 13.2761C37.465 13.2761 36.9642 13.5504 36.8083 14.1178L36.7884 14.2009C36.7619 14.3396 36.6606 14.4768 36.5212 14.4838L35.0299 14.3224C34.9041 14.294 34.7641 14.1928 34.8004 14.0005C35.1432 12.1896 36.7769 11.6426 38.2411 11.6426ZM18.072 11.6426C18.8205 11.6426 19.7992 11.8426 20.3894 12.4094C21.109 13.0826 21.0702 13.9713 21.0661 14.9426L21.0659 17.4587C21.0659 18.1803 21.3652 18.497 21.6465 18.8858C21.7446 19.0259 21.7667 19.1926 21.6414 19.2949L21.1789 19.69C20.9207 19.9131 20.6459 20.1535 20.4617 20.3177L20.458 20.3143C20.3561 20.4057 20.2092 20.4118 20.0945 20.3502C19.5834 19.925 19.4919 19.7285 19.2125 19.3239C18.3682 20.1851 17.7699 20.4433 16.6761 20.4433C15.3806 20.4433 14.3733 19.6432 14.3733 18.0432C14.3733 16.793 15.0497 15.9431 16.0139 15.5263C16.8488 15.1595 18.0146 15.0929 18.9069 14.9928L18.908 14.5082C18.906 14.2168 18.8817 13.9136 18.7198 13.6761C18.5328 13.3928 18.1727 13.2761 17.8563 13.2761C17.2963 13.2761 16.7952 13.5504 16.6395 14.1178L16.6197 14.2009C16.593 14.3396 16.4919 14.4768 16.3523 14.4838L14.8612 14.3224C14.7352 14.294 14.5951 14.1928 14.6316 14.0005C14.9742 12.1896 16.608 11.6426 18.072 11.6426ZM39.0758 16.7947L39.0758 16.2264L38.9042 16.2284C37.8453 16.2537 36.7873 16.5323 36.7873 17.7765C36.7873 18.443 37.1327 18.8932 37.7228 18.8932C38.1547 18.8932 38.5432 18.6266 38.7878 18.1933C39.0498 17.7309 39.074 17.2938 39.0758 16.7947ZM18.9069 16.7947L18.9069 16.2264L18.7354 16.2284C17.6765 16.2537 16.6185 16.5323 16.6185 17.7765C16.6185 18.443 16.964 18.8932 17.5541 18.8932C17.9858 18.8932 18.3745 18.6266 18.619 18.1933C18.8811 17.7309 18.9051 17.2938 18.9069 16.7947ZM53.387 13.2509C52.3111 13.2509 52.2179 14.7424 52.2139 15.7239L52.2159 16.2416C52.2311 17.2978 52.3563 18.8693 53.3731 18.8693C54.5323 18.8693 54.588 17.1819 54.588 16.1528C54.588 15.478 54.5602 14.6682 54.3647 14.0269C54.1968 13.4701 53.8616 13.2509 53.387 13.2509Z" fill="#3B3A40"/>
</svg>
