<svg width="138" height="63" viewBox="0 0 138 63" fill="none" xmlns="http://www.w3.org/2000/svg">
<path fill-rule="evenodd" clip-rule="evenodd" d="M38.2484 34.1551C44.7147 38.2561 52.7106 40.7259 60.9694 40.7259C66.5407 40.7259 72.665 39.4657 78.3 36.8608C79.1498 36.4676 79.8623 37.4713 79.0304 38.1403C74.0041 42.183 66.7165 44.3334 60.4416 44.3334C51.6466 44.3334 43.7273 40.7904 37.7336 34.8923C37.2631 34.4291 37.6829 33.7962 38.2484 34.1551ZM83.6281 34.6517C84.1939 35.3025 83.4804 39.8079 80.7185 41.958C80.2936 42.2889 79.8899 42.1126 80.0781 41.6754L80.4037 40.9106C81.0738 39.3078 81.9908 36.8789 81.4318 36.213C80.773 35.4282 77.0789 35.841 75.4197 36.0257C74.9171 36.0818 74.839 35.6737 75.2922 35.3772C78.2388 33.4509 83.067 34.0073 83.6281 34.6517ZM54.3944 18.6235C55.4938 18.6235 56.6909 19.0772 57.4239 20.0983C58.213 21.1759 58.0984 22.7145 58.085 24.1059L58.0818 32.8296C58.0818 33.0989 57.8555 33.3148 57.5771 33.3148H54.9627C54.6999 33.2979 54.4927 33.0891 54.4927 32.8308L54.4921 25.6856C54.4921 25.1184 54.5411 23.7002 54.4188 23.1614C54.2234 22.2537 53.6371 21.9984 52.8797 21.9984C52.2447 21.9984 51.5847 22.4238 51.316 23.1048C51.1145 23.6153 51.078 24.3809 51.0723 25.055L51.072 32.8296C51.072 33.0989 50.8458 33.3148 50.567 33.3148H47.9529C47.6902 33.2979 47.4829 33.0891 47.4829 32.8308L47.4803 25.6856C47.4803 24.1825 47.7246 21.9701 45.8679 21.9701C44.139 21.9701 44.0608 23.7902 44.0595 25.2958L44.0589 32.8296C44.0592 33.0989 43.833 33.3148 43.5539 33.3148H40.9369C40.6878 33.2985 40.4886 33.1105 40.4687 32.871L40.4705 19.3929C40.4705 19.1233 40.6964 18.9077 40.9755 18.9077L43.4129 18.9071C43.6679 18.9202 43.8728 19.1138 43.8888 19.3595V21.1194H43.9378C44.5732 19.4176 45.7702 18.6235 47.3826 18.6235C49.0196 18.6235 50.0457 19.4176 50.7787 21.1194C51.4137 19.4176 52.8551 18.6235 54.3944 18.6235ZM93.3094 17.8889C97.1547 17.8889 99.2341 21.3363 99.2341 25.7186C99.2341 29.9546 96.9372 33.3148 93.3094 33.3148C89.5367 33.3148 87.481 29.8672 87.481 25.5726C87.481 21.2485 89.5608 17.8889 93.3094 17.8889ZM107.89 18.6235C109.092 18.6235 110.269 19.0489 111.02 20.2118C111.683 21.2296 111.72 22.9053 111.722 24.1873L111.722 32.8901C111.691 33.1293 111.473 33.3148 111.208 33.3148H108.518C108.27 33.2991 108.07 33.1206 108.04 32.8901L108.043 25.2014C108.055 23.7619 108.065 21.9418 106.362 21.9418C105.711 21.9418 105.11 22.3672 104.81 23.0196C104.469 23.7672 104.396 24.5149 104.386 25.3266L104.384 32.8296C104.379 33.0989 104.147 33.3148 103.862 33.3148H101.189C100.92 33.2979 100.708 33.0891 100.708 32.8308L100.703 19.3476C100.726 19.1013 100.948 18.9077 101.218 18.9077L103.707 18.9071C103.941 18.9187 104.134 19.0754 104.184 19.2845V21.3461H104.234C104.985 19.5025 106.037 18.6235 107.89 18.6235ZM84.4722 18.6235C84.7653 18.6235 85.0007 18.833 85.0014 19.1304L85.0007 20.8517C84.9985 21.1404 84.7507 21.5172 84.3101 22.1151L79.5595 28.7676C81.323 28.7273 83.1885 28.9858 84.7909 29.8693C85.152 30.0683 85.2489 30.3638 85.2773 30.6528V32.7941C85.2773 33.0893 84.9482 33.4307 84.6023 33.2532C81.7791 31.8029 78.033 31.6443 74.9118 33.2705C74.5927 33.4372 74.2588 33.1007 74.2588 32.8055V30.7698C74.2588 30.4442 74.2652 29.887 74.6 29.3903L80.1042 21.646L75.3118 21.6451C75.019 21.6451 74.7839 21.4402 74.782 21.1397V19.1329C74.7833 18.8274 75.0181 18.6238 75.3007 18.6244L84.4722 18.6235ZM67.1068 17.9379C68.4026 17.9379 70.0974 18.2842 71.1191 19.2658C72.4152 20.4781 72.2904 22.0941 72.2904 23.8548V28.0092C72.2904 29.2587 72.8093 29.8071 73.2961 30.4804C73.4662 30.723 73.5046 31.0115 73.2873 31.1888L72.7066 31.6831C72.2022 32.1167 71.6167 32.6282 71.2442 32.9597L71.2381 32.954C71.0617 33.1122 70.8075 33.1228 70.6087 33.016C69.7238 32.2798 69.5652 31.9395 69.0817 31.239C67.6191 32.7302 66.5831 33.1772 64.6893 33.1772C62.4464 33.1772 60.7015 31.7919 60.7015 29.0213C60.7015 26.8565 61.8728 25.3847 63.5427 24.663C64.9881 24.0278 67.0071 23.9126 68.5522 23.7393L68.5542 22.9001C68.5507 22.3955 68.5086 21.8705 68.2283 21.4593C67.904 20.9687 67.2812 20.7666 66.7327 20.7666C65.7629 20.7666 64.8958 21.2415 64.6258 22.2241L64.5914 22.3679C64.5454 22.608 64.3701 22.8458 64.1287 22.8579L61.5464 22.5784C61.3285 22.5291 61.0862 22.354 61.149 22.0209C61.7426 18.8852 64.5714 17.9379 67.1068 17.9379ZM32.1821 17.9379C33.4782 17.9379 35.1729 18.2842 36.1949 19.2658C37.4409 20.4314 37.3737 21.9704 37.3667 23.6523L37.3662 28.0092C37.3662 29.2587 37.8845 29.8071 38.3716 30.4804C38.5415 30.723 38.5799 31.0115 38.3629 31.1888L37.5619 31.8729C37.1148 32.2592 36.639 32.6755 36.32 32.9597L36.3137 32.954C36.1372 33.1122 35.8828 33.1228 35.6842 33.016C34.7991 32.2798 34.6407 31.9395 34.1569 31.239C32.6949 32.7302 31.659 33.1772 29.7648 33.1772C27.5216 33.1772 25.7773 31.7919 25.7773 29.0213C25.7773 26.8565 26.9487 25.3847 28.6183 24.663C30.064 24.0278 32.0827 23.9126 33.6278 23.7393L33.6297 22.9001C33.6262 22.3955 33.5842 21.8705 33.3038 21.4593C32.9799 20.9687 32.3564 20.7666 31.8086 20.7666C30.8388 20.7666 29.9711 21.2415 29.7016 22.2241L29.6672 22.3679C29.621 22.608 29.446 22.8458 29.2042 22.8579L26.6223 22.5784C26.4041 22.5291 26.1614 22.354 26.2246 22.0209C26.8178 18.8852 29.647 17.9379 32.1821 17.9379ZM68.5522 26.8594L68.5522 25.8753L68.2551 25.8788C66.4214 25.9226 64.5895 26.4049 64.5895 28.5594C64.5895 29.7136 65.1876 30.4931 66.2093 30.4931C66.9572 30.4931 67.6299 30.0315 68.0536 29.2811C68.5072 28.4805 68.5491 27.7236 68.5522 26.8594ZM33.6278 26.8594L33.6278 25.8753L33.3307 25.8788C31.4973 25.9226 29.6651 26.4049 29.6651 28.5594C29.6651 29.7136 30.2634 30.4931 31.2852 30.4931C32.0328 30.4931 32.7058 30.0315 33.1292 29.2811C33.583 28.4805 33.6247 27.7236 33.6278 26.8594ZM93.3335 20.7229C91.4705 20.7229 91.3091 23.3056 91.3022 25.0052L91.3056 25.9017C91.3321 27.7305 91.5487 30.4517 93.3094 30.4517C95.3168 30.4517 95.4132 27.5299 95.4132 25.7478C95.4132 24.5793 95.365 23.1771 95.0265 22.0666C94.7358 21.1025 94.1554 20.7229 93.3335 20.7229Z" fill="#3B3A40"/>
</svg>
