<svg width="138" height="63" viewBox="0 0 138 63" fill="none" xmlns="http://www.w3.org/2000/svg">
<path fill-rule="evenodd" clip-rule="evenodd" d="M15.0864 23.3765C15.2885 23.2761 15.5311 23.3564 15.6322 23.5571L22.626 37.4687C22.6462 37.5289 22.6664 37.6092 22.6664 37.6694C22.6664 37.8862 22.5027 38.0705 22.2931 38.1052L22.2218 38.111H17.1482C17.0096 38.111 16.8858 38.0373 16.8024 37.9277L16.7641 37.8701L14.3183 33.0121C12.864 30.0651 13.0338 26.6058 14.7347 23.8148L14.8843 23.5772C14.9247 23.4969 14.9853 23.4367 15.0864 23.3765ZM80.0614 25.673L80.2816 25.6706C81.5539 25.6312 82.8091 25.8841 83.9836 26.4123L84.2532 26.5391V29.5047C82.9624 28.8692 81.5922 28.4244 80.2021 28.4244C79.0504 28.4244 78.4348 28.7421 78.4348 29.4835C78.4348 30.0343 78.8399 30.4475 80.4126 30.8368L80.5993 30.8816C83.6778 31.5838 84.8119 32.6082 84.8667 34.7402L84.8684 34.8941L75.6149 29.4835L75.6152 29.5181L75.5553 29.4835C75.5553 27.1675 77.0882 25.7397 80.0614 25.673ZM75.6152 29.5181L75.6164 29.6208C75.6561 31.4417 76.5076 32.8893 79.6461 33.5507L79.84 33.5942C81.5993 33.9981 81.9695 34.3366 81.9695 34.9911C81.9695 35.6478 81.5724 36.0926 80.222 36.0926C78.5936 36.0715 76.9851 35.6054 75.5553 34.7369V37.8085L75.6736 37.8697C76.6318 38.3617 77.8946 38.8888 80.1823 38.8888L80.408 38.8863C83.599 38.8152 84.8887 37.225 84.8887 34.9064L84.8684 34.8941L84.8688 34.9064L75.6152 29.5181ZM92.1527 25.6729L92.3847 25.6706C93.7572 25.6312 95.1113 25.8841 96.3782 26.4123L96.669 26.5391V29.5047C95.2766 28.8692 93.7985 28.4244 92.299 28.4244C91.0565 28.4244 90.3924 28.7421 90.3924 29.4835C90.3924 30.035 90.8307 30.4487 92.533 30.8384L92.7274 30.8816C96.1335 31.6018 97.3331 32.661 97.3331 34.9064C97.3331 37.2789 95.8979 38.8676 92.2133 38.8888C89.7415 38.8888 88.3789 38.36 87.3446 37.8674L87.222 37.8085V34.7369C88.7644 35.6054 90.4995 36.0715 92.2561 36.0926C93.7128 36.0926 94.1413 35.6478 94.1413 34.9911C94.1413 34.3359 93.7409 33.9973 91.8372 33.5928L91.6349 33.5507C88.1646 32.8728 87.2863 31.3688 87.2863 29.4835C87.2863 27.1662 88.9417 25.7381 92.1527 25.6729ZM12.1455 30.4912C12.0083 30.318 11.7534 30.2796 11.577 30.4142C11.5181 30.4527 11.4789 30.5105 11.4593 30.5682L7.9304 37.5145L7.9042 37.5862C7.85149 37.7799 7.93475 37.987 8.12645 38.0725C8.18526 38.0918 8.24408 38.111 8.3225 38.111H13.2434L13.3103 38.1063C13.443 38.0875 13.5655 38.0121 13.6159 37.8801C14.655 35.725 14.008 32.4539 12.1455 30.4912ZM127.107 31.3643L124.075 25.6666H119.889V38.111H122.549V28.6286L123.663 31.138L127.437 38.111H130.778V25.6666H128.117V33.7092L127.107 31.3643ZM102.778 25.6666V38.111H99.6665V25.6666H102.778ZM55.9669 35.4164V25.6666H52.9998V38.111H59.0595L59.9998 35.4164H55.9669ZM50.6664 25.6666V28.3612H47.3217V38.111H44.4776V28.3612H41.3331V25.6666H50.6664ZM41.3331 38.111L37.0144 25.6666H33.2074L28.8887 38.111H32.184L32.798 36.013L33.0829 36.0925C34.5119 36.4637 36.0038 36.4372 37.4238 36.013L38.0378 38.111H41.3331ZM68.9033 25.6666L73.222 38.111H69.9267L69.3126 36.013C67.8927 36.4372 66.4008 36.4637 64.9718 36.0925L64.6869 36.013L64.0729 38.111H60.7776L65.0963 25.6666H68.9033ZM117.555 38.111L113.237 25.6666H109.43L105.111 38.111H108.406L109.02 36.013L109.305 36.0925C110.734 36.4637 112.226 36.4372 113.646 36.013L114.26 38.111H117.555ZM33.5144 33.5446L35.1109 28.1143L36.7074 33.5446L36.4413 33.6185C35.9978 33.728 35.5544 33.7709 35.1109 33.7709C34.5787 33.7709 34.0466 33.6886 33.5144 33.5446ZM66.9998 28.1143L65.4033 33.5446C65.9355 33.6886 66.4676 33.7709 66.9998 33.7709C67.4433 33.7709 67.8867 33.728 68.3302 33.6185L68.5963 33.5446L66.9998 28.1143ZM109.737 33.5446L111.333 28.1143L112.93 33.5446L112.664 33.6185C112.22 33.728 111.777 33.7709 111.333 33.7709C110.801 33.7709 110.269 33.6886 109.737 33.5446Z" fill="#3B3A40"/>
</svg>
