<svg width="88" height="39" viewBox="0 0 88 39" fill="none" xmlns="http://www.w3.org/2000/svg">
<path fill-rule="evenodd" clip-rule="evenodd" d="M12.6909 14.7833C12.8076 14.7253 12.9477 14.7717 13.006 14.8876L17.045 22.9215C17.0567 22.9563 17.0683 23.0026 17.0683 23.0374C17.0683 23.1626 16.9738 23.269 16.8528 23.2891L16.8115 23.2925H13.8815C13.8015 23.2925 13.73 23.2499 13.6818 23.1866L13.6597 23.1534L12.2473 20.3479C11.4075 18.646 11.5055 16.6482 12.4878 15.0364L12.5741 14.8992C12.5975 14.8528 12.6325 14.818 12.6909 14.7833ZM50.214 16.1095L50.3411 16.1081C51.0759 16.0854 51.8007 16.2314 52.479 16.5365L52.6347 16.6097V18.3223C51.8893 17.9553 51.098 17.6984 50.2952 17.6984C49.6301 17.6984 49.2746 17.8819 49.2746 18.3101C49.2746 18.6281 49.5085 18.8668 50.4168 19.0916L50.5246 19.1175C52.3024 19.523 52.9574 20.1146 52.989 21.3458L52.99 21.4347L47.6461 18.3101L47.6463 18.3301L47.6117 18.3101C47.6117 16.9726 48.4969 16.148 50.214 16.1095ZM47.6463 18.3301L47.6469 18.3893C47.6698 19.4409 48.1616 20.2769 49.9741 20.6589L50.0861 20.684C51.1021 20.9173 51.3159 21.1128 51.3159 21.4907C51.3159 21.8699 51.0865 22.1268 50.3067 22.1268C49.3663 22.1146 48.4374 21.8455 47.6117 21.3439V23.1177L47.68 23.1531C48.2334 23.4372 48.9626 23.7416 50.2837 23.7416L50.4141 23.7402C52.2569 23.6991 53.0017 22.7808 53.0017 21.4418L52.99 21.4347L52.9902 21.4418L47.6463 18.3301ZM57.1966 16.1094L57.3306 16.1081C58.1233 16.0854 58.9052 16.2314 59.6369 16.5365L59.8048 16.6097V18.3223C59.0007 17.9553 58.1471 17.6984 57.2811 17.6984C56.5636 17.6984 56.1801 17.8819 56.1801 18.3101C56.1801 18.6286 56.4332 18.8675 57.4163 19.0925L57.5286 19.1175C59.4956 19.5334 60.1883 20.1451 60.1883 21.4418C60.1883 22.8119 59.3595 23.7294 57.2316 23.7416C55.8042 23.7416 55.0173 23.4363 54.42 23.1518L54.3492 23.1177V21.3439C55.2399 21.8455 56.242 22.1146 57.2564 22.1268C58.0976 22.1268 58.345 21.8699 58.345 21.4907C58.345 21.1123 58.1138 20.9168 57.0145 20.6832L56.8976 20.6589C54.8935 20.2674 54.3863 19.3988 54.3863 18.3101C54.3863 16.9718 55.3423 16.1471 57.1966 16.1094ZM10.9925 18.892C10.9132 18.792 10.7661 18.7698 10.6642 18.8476C10.6302 18.8698 10.6076 18.9031 10.5962 18.9365L8.55828 22.948L8.54315 22.9894C8.51271 23.1012 8.56079 23.2209 8.6715 23.2702C8.70546 23.2814 8.73943 23.2925 8.78472 23.2925H11.6265L11.6652 23.2897C11.7418 23.2789 11.8125 23.2353 11.8416 23.1591C12.4417 21.9146 12.0681 20.0255 10.9925 18.892ZM77.3826 19.3962L75.6319 16.1058H73.2142V23.2925H74.7505V17.8163L75.3937 19.2656L77.5731 23.2925H79.5025V16.1058H77.9662V20.7504L77.3826 19.3962ZM63.3325 16.1058V23.2925H61.5358V16.1058H63.3325ZM36.2994 21.7363V16.1058H34.5858V23.2925H38.0853L38.6283 21.7363H36.2994ZM33.2383 16.1058V17.6619H31.3067V23.2925H29.6643V17.6619H27.8483V16.1058H33.2383ZM27.8483 23.2925L25.3543 16.1058H23.1557L20.6617 23.2925H22.5647L22.9193 22.0808L23.0839 22.1268C23.9091 22.3411 24.7707 22.3258 25.5907 22.0808L25.9453 23.2925H27.8483ZM43.7701 16.1058L46.2642 23.2925H44.3611L44.0065 22.0808C43.1865 22.3258 42.3249 22.3411 41.4997 22.1268L41.3352 22.0808L40.9806 23.2925H39.0775L41.5716 16.1058H43.7701ZM71.8667 23.2925L69.3726 16.1058H67.1741L64.68 23.2925H66.5831L66.9377 22.0808L67.1022 22.1268C67.9274 22.3411 68.789 22.3258 69.609 22.0808L69.9636 23.2925H71.8667ZM23.333 20.6554L24.255 17.5194L25.177 20.6554L25.0233 20.6981C24.7672 20.7613 24.5111 20.786 24.255 20.786C23.9477 20.786 23.6404 20.7385 23.333 20.6554ZM42.6708 17.5194L41.7489 20.6554C42.0562 20.7385 42.3635 20.786 42.6708 20.786C42.9269 20.786 43.1831 20.7613 43.4392 20.6981L43.5928 20.6554L42.6708 17.5194ZM67.3514 20.6554L68.2733 17.5194L69.1953 20.6554L69.0417 20.6981C68.7856 20.7613 68.5294 20.786 68.2733 20.786C67.966 20.786 67.6587 20.7385 67.3514 20.6554Z" fill="#3B3A40"/>
</svg>
